<?xml version="1.0" standalone="no"?>
<!DOCTYPE svg PUBLIC "-//W3C//DTD SVG 20010904//EN"
 "http://www.w3.org/TR/2001/REC-SVG-20010904/DTD/svg10.dtd">
<svg version="1.0" xmlns="http://www.w3.org/2000/svg"
 width="256.000000pt" height="256.000000pt" viewBox="0 0 256.000000 256.000000"
 preserveAspectRatio="xMidYMid meet">

<g transform="translate(0.000000,256.000000) scale(0.100000,-0.100000)"
fill="#000000" stroke="none">
<path d="M1240 2081 c21 -6 25 -13 25 -46 0 -35 -3 -40 -24 -43 -27 -4 -43 15
-35 40 2 9 0 19 -6 23 -13 8 -13 -30 0 -55 9 -18 3 -19 -144 -22 l-153 -3
-102 -94 c-161 -149 -145 -91 -151 -541 -4 -336 -7 -385 -20 -381 -62 15 -80
18 -108 13 -19 -2 -32 -10 -32 -19 0 -25 102 -165 172 -235 123 -124 278 -207
454 -243 45 -9 102 -15 128 -13 l47 3 -50 38 c-40 29 -51 43 -51 65 0 15 -4
32 -9 37 -8 8 -16 257 -12 360 l2 30 34 -40 35 -40 -3 -117 c-1 -83 2 -121 11
-130 9 -9 12 -9 12 4 0 9 3 24 6 32 5 12 2 15 -10 10 -11 -4 -16 -1 -16 11 0
12 5 15 16 11 12 -5 15 -2 9 11 -9 21 -9 22 -7 95 2 48 7 63 31 90 16 18 33
29 38 25 4 -5 9 -116 11 -248 2 -156 7 -239 14 -239 7 0 8 19 4 53 -3 28 -6
147 -8 263 l-2 211 30 38 c28 37 29 42 29 152 0 62 4 113 8 113 13 0 55 -102
62 -151 7 -45 5 -48 -21 -61 -60 -28 -66 -101 -12 -141 45 -34 118 3 118 60 0
21 3 24 12 15 7 -7 22 -12 35 -12 20 0 23 -5 23 -36 0 -56 -38 -134 -74 -151
-30 -14 -30 -14 -3 -8 19 4 27 1 27 -8 0 -19 -39 -136 -56 -169 -8 -16 -19
-39 -24 -53 -9 -23 -7 -25 18 -25 30 0 25 -12 73 172 7 27 16 39 34 44 30 8
55 34 32 34 -22 0 -32 75 -18 140 16 76 15 81 -15 74 -22 -6 -32 0 -58 28 -18
19 -37 37 -43 39 -5 2 -13 36 -16 75 l-6 72 67 -20 c37 -11 74 -27 84 -35 47
-42 166 -401 159 -479 -1 -7 -33 -37 -71 -68 -72 -58 -94 -91 -39 -59 17 10
57 40 90 66 66 54 70 67 44 153 -8 27 -15 54 -15 60 0 5 22 18 49 28 82 29 81
40 -4 61 l-75 18 0 391 c0 355 -2 393 -18 417 -33 50 -157 181 -184 195 -20
10 -68 14 -180 14 -118 0 -149 3 -140 12 16 16 16 70 0 86 -7 7 -21 12 -32 11
-18 -1 -17 -2 4 -8z m410 -218 c45 -49 88 -100 96 -115 12 -22 14 -90 12 -365
l-3 -338 -42 82 c-46 88 -50 91 -174 125 -29 8 -64 29 -93 56 l-47 44 21 70
c16 54 19 77 11 97 -5 14 -12 51 -16 82 -9 85 -34 104 -128 99 -39 -2 -88 -3
-108 -2 -28 1 -44 -5 -64 -26 -24 -24 -27 -33 -24 -92 4 -91 1 -122 -11 -115
-15 9 -12 -7 5 -32 8 -12 21 -39 28 -60 12 -36 11 -40 -17 -80 -22 -32 -45
-49 -94 -70 -47 -19 -71 -37 -88 -63 -24 -37 -67 -174 -79 -253 -4 -26 -8 -47
-9 -47 -1 0 -28 -5 -59 -11 -101 -18 -93 -59 -87 433 4 313 8 439 17 454 7 12
58 65 114 118 l101 96 328 0 328 0 82 -87z m-460 -258 c14 -17 78 -20 130 -5
41 12 56 1 66 -49 7 -31 6 -33 -14 -22 -27 14 -75 14 -90 -1 -9 -9 -21 -8 -53
2 -31 11 -48 11 -70 3 -28 -11 -29 -10 -29 16 0 27 24 71 39 71 5 0 14 -7 21
-15z m34 -97 c16 -26 -4 -52 -42 -56 -27 -3 -32 1 -38 24 -12 48 54 73 80 32z
m140 3 c12 -13 15 -27 11 -41 -5 -17 -13 -21 -43 -18 -32 3 -37 7 -40 32 -6
46 40 63 72 27z m-94 -21 c0 -11 9 -29 21 -41 21 -21 50 -22 93 -4 17 8 19 5
13 -29 -12 -74 -78 -146 -135 -146 -60 0 -132 83 -132 152 l0 37 29 -16 c27
-16 30 -16 55 0 14 10 28 28 32 42 7 30 24 33 24 5z m-153 -22 c-3 -7 -5 -2
-5 12 0 14 2 19 5 13 2 -7 2 -19 0 -25z m78 -360 c24 -82 40 -148 36 -148 -3
0 -26 31 -50 68 -32 48 -46 80 -49 114 -3 32 -1 48 7 48 6 0 11 5 11 10 0 6
-7 10 -15 10 -9 0 -15 10 -16 23 0 19 -2 18 -12 -8 -7 -16 -22 -48 -33 -70
-28 -51 -46 -169 -38 -239 6 -52 6 -54 -22 -67 -35 -17 -45 -67 -19 -93 24
-24 71 -20 89 6 22 30 20 42 -9 77 -25 29 -26 30 -16 143 9 122 36 205 54 172
13 -22 23 -584 11 -584 -20 0 -201 72 -241 96 -40 23 -43 28 -43 68 0 59 36
258 61 333 26 81 48 107 107 128 59 21 69 29 107 80 l30 40 3 -30 c2 -16 23
-96 47 -177z m128 132 c5 -4 -6 -19 -24 -34 -34 -29 -43 -27 -79 24 l-19 27
57 -5 c31 -2 61 -8 65 -12z m-105 -41 c32 -35 32 -36 12 -54 -19 -17 -20 -17
-28 6 -10 27 -26 97 -21 89 2 -3 19 -21 37 -41z m138 4 c-29 -56 -43 -69 -58
-55 -11 11 -7 19 24 48 46 41 53 43 34 7z m34 -52 c0 -57 -2 -62 -56 -130 -31
-39 -60 -71 -64 -71 -9 0 71 198 95 234 10 14 19 26 21 26 2 0 4 -27 4 -59z
m-96 -80 c-9 -20 -21 -49 -27 -66 l-10 -29 -18 49 c-24 68 -23 90 4 108 20 14
24 13 44 -5 21 -20 21 -22 7 -57z m220 -33 c9 -12 16 -26 16 -30 0 -14 -32
-38 -52 -38 -17 0 -20 5 -16 30 5 36 1 39 -12 8 -9 -23 -9 -23 -9 3 -2 49 46
66 73 27z m-50 -87 c-2 -3 -12 3 -22 13 -16 17 -16 18 5 5 12 -7 20 -15 17
-18z m-411 -135 c10 -26 -34 -49 -48 -26 -8 13 13 40 30 40 7 0 15 -6 18 -14z"/>
<path d="M1227 1373 c9 -7 26 -13 38 -13 12 0 29 6 38 13 15 10 9 12 -38 12
-47 0 -53 -2 -38 -12z"/>
</g>
</svg>
